<?xml version="1.0" encoding="UTF-8"?>
<!-- Generator: Adobe Illustrator 17.0.0, SVG Export Plug-In . SVG Version: 6.00 Build 0)  -->
<svg version="1.2" baseProfile="tiny" id="Capa_1" xmlns="http://www.w3.org/2000/svg" xmlns:xlink="http://www.w3.org/1999/xlink" x="0px" y="0px" width="200px" height="241px" viewBox="0 0 200 241" xml:space="preserve">
<g>
	<path fill="none" stroke="#E30613" stroke-miterlimit="10" d="M45.181,14.303"/>
	<path fill="#3AB187" d="M51.913,9.202l8.572-3.626l5.605-1.814l9.561-1.814h25.222h1.649l7.089,0.989l5.44,0.494l4.121,1.318   l6.264,0.824l8.078,2.967l6.264,2.143l6.923,3.617l5.77,3.306l5.275,4.287l4.781,4.121l4.616,5.77l3.626,6.594l2.473,6.429   l1.814,7.748V73.16l-0.824,5.77l-0.989,4.781l-1.484,6.429l-0.824,1.979h-2.802l-6.594-1.154l-6.264-1.154l-5.111-1.154   l-6.099-2.638l-5.77-3.791l-4.287-3.462l-3.297-3.462l-3.626-4.946l-2.967-5.77l-1.979-5.605l-1.484-4.946l-0.824-4.946   l-0.33-10.221h-7.748l-0.494,1.814l-1.318,1.979l-18.793-0.33l-1.814-1.649v-1.814h-8.572v10.551l-1.484,5.605   c0,0-1.484,5.605-1.484,6.264c0,0.659-2.967,5.77-2.967,5.77l-3.132,5.275l-4.286,4.947l-5.44,4.781l-7.089,4.121   c0,0-6.264,2.473-6.758,2.473s-9.231,1.979-9.231,1.979l-8.902,0.824l-1.484-7.089L27.352,70.36v-4.781l0.659-12.034l1.979-10.221   l2.143-8.572l3.791-9.396l5.605-7.913l5.275-4.946L51.913,9.202z"/>
	<polygon fill="#3AB187" points="91.806,51.302 109.224,51.302 111.386,52.955 111.386,77.748 109.224,79.654 91.806,79.654    89.389,76.349 89.389,54.099  "/>
	<polygon fill="#3AB187" points="91.806,116.017 89.389,112.966 89.389,90.08 91.806,87.537 109.732,87.537 111.386,89.826    111.386,113.347 109.351,116.017  "/>
	<path fill="#3AB187" d="M88.755,137.758v-9.789l2.289-2.543h19.198l2.289,3.051c0,0,0.382,9.663,0,9.281s-11.082,0.89-11.326,0.763   c-0.243-0.127-12.449,0.008-12.449,0.008v-0.772H88.755z"/>
	<path fill="#3AB187" d="M31.286,97.073c0,0,8.519-0.89,9.409-0.89s8.137-1.526,8.137-1.526l7.374-2.537l6.738-3.693l5.594-4.45   l4.45-4.323l2.797-3.179h0.508l-0.508,3.179l-1.526,3.815l-1.653,4.704L70.7,92.878l-3.179,4.959l-3.179,5.213l-3.687,4.45   l-3.687,4.393l-4.577,3.235l-5.213,3.56l-2.034,1.017l-1.907-1.017l-4.704-6.796l-4.323-7.698l-2.925-5.467   C31.286,98.727,31.286,97.073,31.286,97.073z"/>
	<polygon fill="#3AB187" points="78.456,137.122 73.37,135.978 65.868,133.563 59.004,130.638 52.646,126.57 49.595,124.154    51.374,122.755 56.587,119.704 63.071,113.855 68.539,107.371 73.116,99.997 76.295,94.403 77.566,90.334 79.346,85.504  "/>
	<path fill="#3AB187" d="M150.798,124.536l-4.704,2.925l-5.34,2.797l-6.102,2.797l-5.467,1.653l-6.484,0.636l-1.526-48.441   l1.907,3.941c0,0,2.67,5.722,2.67,6.102c0,0.382,3.051,4.958,3.179,5.722c0.128,0.763,3.815,5.722,3.815,5.722l4.069,4.704   l5.086,4.959l4.958,3.433L150.798,124.536z"/>
	<polyline fill="#3AB187" points="160.894,114.001 155.757,119.704 150.798,117.161 144.696,112.966 138.466,106.608    133.508,99.108 129.948,92.121 126.642,84.868 124.99,79.654 124.48,76.476 126.642,79.654 130.838,83.85 137.322,88.809    143.806,92.121 150.798,94.785 159.572,96.564 169.362,97.073 169.362,99.743 167.327,103.557 163.894,110.041 160.894,114.001     "/>
</g>
<g>
	<path fill="#706F6F" d="M25.492,200.126h-3.866c0.204-4.395,0.305-9.034,0.305-13.917c0-4.802-0.102-8.993-0.305-12.574h3.866   c-0.19,3.703-0.285,7.895-0.285,12.574C25.208,191.119,25.302,195.759,25.492,200.126z"/>
	<path fill="#706F6F" d="M53.571,200.126h-2.849c0-0.23-2.225-3.479-6.674-9.746c-4.653-6.579-7.304-10.729-7.956-12.452h-0.204   c0.244,3.27,0.367,6.07,0.367,8.403c0,4.558,0.102,9.156,0.305,13.795h-3.418c0.23-4.408,0.346-9.047,0.346-13.917   c0-4.788-0.115-8.979-0.346-12.574h3.907c0,0.38,2.048,3.473,6.145,9.278c4.286,6.104,6.728,10.078,7.325,11.923h0.204   c-0.231-3.31-0.346-6.117-0.346-8.424c0-5.019-0.095-9.278-0.285-12.777h3.479c-0.231,3.595-0.346,7.786-0.346,12.574   C53.225,191.079,53.34,195.718,53.571,200.126z"/>
	<path fill="#706F6F" d="M80.551,199.576c-2.225,0.733-4.47,1.1-6.735,1.1c-4.761,0-8.353-1.272-10.774-3.815   c-2.421-2.543-3.632-5.687-3.632-9.431c0-3.784,1.316-7.091,3.947-9.919s6.28-4.242,10.947-4.242c1.682,0,3.276,0.196,4.781,0.59   l-0.508,3.378c-2.238-0.543-4.042-0.814-5.413-0.814c-3.283,0-5.795,0.994-7.538,2.98c-1.743,1.987-2.615,4.453-2.615,7.396   c0,2.957,1,5.548,3.001,7.772s4.826,3.337,8.475,3.337c0.665,0,1.662-0.102,2.991-0.306c-0.23-1.41-0.346-3.052-0.346-4.924   c0-1.573-0.095-3.112-0.285-4.618h3.703c-0.109,1.79-0.163,3.683-0.163,5.677C80.388,194.592,80.442,196.538,80.551,199.576z"/>
	<path fill="#706F6F" d="M107.144,200.126h-3.927c-1.302-3.893-2.251-6.471-2.848-7.731c-0.76-1.587-1.621-2.611-2.584-3.072   c-0.76-0.366-2.123-0.55-4.089-0.55c-1.153,0-2.177,0.014-3.072,0.041c0,4.381,0.081,8.152,0.244,11.313h-3.785   c0.204-4.205,0.305-8.844,0.305-13.917c0-4.774-0.102-8.966-0.305-12.574h2.869c0.611,0,1.384-0.021,2.32-0.062   c0.936-0.04,2.007-0.061,3.215-0.061c5.941,0,8.912,2.048,8.912,6.145c0,3.405-1.669,5.799-5.006,7.183v0.203   c1.492,0.447,2.699,1.485,3.622,3.113C103.787,191.513,105.163,194.836,107.144,200.126z M100.918,181.041   c0-3.229-2.184-4.843-6.552-4.843c-1.56,0-2.869,0.088-3.927,0.265c0.095,2.36,0.142,5.568,0.142,9.624   c0.814,0.027,1.594,0.04,2.34,0.04C98.252,186.127,100.918,184.432,100.918,181.041z"/>
	<path fill="#706F6F" d="M128.833,197.054l-0.122,3.072h-16.399c0.189-4.205,0.285-8.844,0.285-13.917   c0-4.774-0.096-8.966-0.285-12.574h15.382l-0.162,3.031c-3.73-0.163-7.685-0.244-11.862-0.244c0.081,2.103,0.122,4.944,0.122,8.525   c3.607,0,6.822-0.081,9.645-0.244v3.031c-3.012-0.122-6.227-0.183-9.645-0.183c0,3.486,0.061,6.755,0.183,9.807   C120.478,197.358,124.764,197.257,128.833,197.054z"/>
	<path fill="#706F6F" d="M149.466,193.27c0,5.019-3.493,7.528-10.479,7.528c-2.551,0-4.815-0.292-6.796-0.875l0.712-3.194   c2.278,0.786,4.442,1.18,6.49,1.18c4.612,0,6.918-1.302,6.918-3.906c0-1.315-0.597-2.442-1.79-3.378   c-0.801-0.624-2.374-1.458-4.721-2.503c-2.469-1.099-4.198-2.108-5.188-3.031c-1.37-1.275-2.055-2.876-2.055-4.802   c0-2.008,0.698-3.643,2.096-4.903c1.56-1.411,3.764-2.116,6.612-2.116c3.229,0,5.439,0.21,6.633,0.631l-0.488,3.234   c-2.062-0.65-4.252-0.977-6.571-0.977c-3.486,0-5.229,1.167-5.229,3.5c0,1.126,0.502,2.068,1.506,2.828   c0.65,0.475,2.089,1.193,4.313,2.157c2.536,1.099,4.367,2.143,5.493,3.133C148.617,189.268,149.466,191.099,149.466,193.27z"/>
	<path fill="#706F6F" d="M178.378,186.474c0,4.381-1.282,7.884-3.846,10.509s-5.527,3.938-8.892,3.938   c-3.229,0-6.06-1.204-8.494-3.612c-2.436-2.407-3.652-5.659-3.652-9.756c0-4.436,1.281-7.952,3.845-10.55s5.527-3.896,8.892-3.896   c3.229,0,6.061,1.204,8.495,3.611C177.16,179.125,178.378,182.377,178.378,186.474z M174.756,186.941   c0-3.5-0.919-6.209-2.757-8.129c-1.838-1.919-3.957-2.879-6.358-2.879c-2.225,0-4.205,1.011-5.941,3.032s-2.604,4.72-2.604,8.098   c0,3.514,0.926,6.229,2.777,8.148c1.852,1.92,3.972,2.879,6.358,2.879c2.225,0,4.202-1.023,5.932-3.072   C173.892,192.971,174.756,190.278,174.756,186.941z"/>
</g>
<g>
	<path fill="#6F6F6E" d="M82.33,218.386c-0.031,1.445-0.054,2.796-0.069,4.051c-0.016,1.255-0.023,2.426-0.023,3.512   c0,5.127-2.024,7.689-6.071,7.689c-1.056,0-1.961-0.15-2.714-0.453c-0.754-0.302-1.374-0.765-1.859-1.389   c-0.486-0.623-0.842-1.409-1.067-2.358c-0.226-0.948-0.338-2.069-0.338-3.362c0-1.133-0.008-2.336-0.023-3.61   c-0.016-1.273-0.039-2.634-0.069-4.079h2.181c-0.092,2.915-0.138,5.198-0.138,6.852c0,1.331,0.064,2.416,0.195,3.253   c0.13,0.838,0.362,1.536,0.694,2.095c0.333,0.559,0.752,0.955,1.257,1.188s1.147,0.35,1.928,0.35c0.818,0,1.484-0.116,1.997-0.35   s0.93-0.62,1.251-1.159c0.322-0.54,0.551-1.232,0.689-2.078c0.138-0.845,0.207-1.952,0.207-3.322c0-0.811-0.014-1.78-0.04-2.909   c-0.027-1.129-0.067-2.435-0.121-3.919H82.33z M79.908,213.933c0,0.092-0.509,0.608-1.526,1.549   c-1.018,0.941-1.565,1.474-1.641,1.596h-1.377c0-0.122,0.344-0.656,1.033-1.602c0.688-0.944,1.033-1.459,1.033-1.543H79.908z"/>
	<path fill="#6F6F6E" d="M97.915,233.328h-1.606c0-0.13-1.255-1.963-3.765-5.497c-2.625-3.711-4.12-6.053-4.487-7.024h-0.115   c0.138,1.845,0.207,3.425,0.207,4.74c0,2.57,0.058,5.164,0.172,7.781h-1.928c0.13-2.486,0.195-5.104,0.195-7.851   c0-2.7-0.065-5.064-0.195-7.092h2.204c0,0.214,1.155,1.958,3.466,5.233c2.417,3.442,3.795,5.685,4.132,6.725h0.115   c-0.13-1.866-0.195-3.45-0.195-4.751c0-2.831-0.054-5.233-0.161-7.207h1.962c-0.13,2.027-0.195,4.392-0.195,7.092   C97.72,228.225,97.785,230.842,97.915,233.328z"/>
	<path fill="#6F6F6E" d="M104.411,233.328h-2.181c0.115-2.479,0.172-5.096,0.172-7.851c0-2.708-0.057-5.072-0.172-7.092h2.181   c-0.107,2.088-0.16,4.452-0.16,7.092C104.251,228.248,104.304,230.864,104.411,233.328z"/>
	<path fill="#6F6F6E" d="M118.85,231.503l-0.149,1.71c-0.941,0.283-1.967,0.425-3.076,0.425c-2.632,0-4.609-0.721-5.934-2.163   c-1.323-1.442-1.985-3.204-1.985-5.285c0-2.181,0.738-4.061,2.215-5.641s3.463-2.37,5.957-2.37c0.688,0,1.415,0.104,2.181,0.31   l-0.321,1.825c-0.88-0.275-1.664-0.413-2.354-0.413c-1.852,0-3.255,0.573-4.212,1.722c-0.956,1.147-1.435,2.552-1.435,4.212   c0,1.69,0.551,3.141,1.653,4.35c1.102,1.209,2.624,1.813,4.567,1.813C116.699,231.997,117.663,231.832,118.85,231.503z"/>
	<path fill="#6F6F6E" d="M134.652,225.627c0,2.472-0.723,4.447-2.169,5.928c-1.445,1.48-3.117,2.221-5.015,2.221   c-1.821,0-3.419-0.679-4.792-2.037c-1.373-1.357-2.06-3.192-2.06-5.503c0-2.502,0.723-4.485,2.169-5.95   c1.446-1.466,3.117-2.198,5.016-2.198c1.82,0,3.418,0.679,4.791,2.037S134.652,223.316,134.652,225.627z M132.61,225.892   c0-1.975-0.519-3.503-1.556-4.585c-1.037-1.083-2.232-1.624-3.586-1.624c-1.255,0-2.372,0.569-3.352,1.71   c-0.979,1.14-1.469,2.662-1.469,4.567c0,1.981,0.522,3.514,1.566,4.597c1.045,1.083,2.24,1.624,3.587,1.624   c1.254,0,2.369-0.578,3.345-1.733S132.61,227.773,132.61,225.892z"/>
</g>
</svg>